<svg width="600" height="400" xmlns="http://www.w3.org/2000/svg" xmlns:svg="http://www.w3.org/2000/svg">
 <!-- Created with SVG-edit - http://svg-edit.googlecode.com/ -->
 <g>
  <title>Layer 1</title>
  <path id="svg_3" d="m53,384l-3,-363l3,363z" stroke-linecap="null" stroke-linejoin="null" stroke-dasharray="null" stroke-width="5" stroke="#000000" fill="#FF0000"/>
  <line stroke="#000000" id="svg_5" y2="19" x2="51" y1="33" x1="34" stroke-linecap="null" stroke-linejoin="null" stroke-dasharray="null" stroke-width="5" fill="none"/>
  <line id="svg_6" y2="384" x2="54" y1="373" x1="36" stroke-linecap="null" stroke-linejoin="null" stroke-dasharray="null" stroke-width="5" stroke="#000000" fill="none"/>
  <line stroke="#000000" id="svg_7" y2="19" x2="48" y1="33" x1="66" stroke-linecap="null" stroke-linejoin="null" stroke-dasharray="null" stroke-width="5" fill="none"/>
  <line id="svg_8" y2="384" x2="52" y1="373" x1="69" stroke-linecap="null" stroke-linejoin="null" stroke-dasharray="null" stroke-width="5" stroke="#000000" fill="none"/>
  <line id="svg_10" y2="212" x2="88" y1="212" x1="17" stroke-linecap="null" stroke-linejoin="null" stroke-dasharray="null" stroke-width="5" stroke="#bd63c5" fill="none"/>
  <line id="svg_11" y2="113" x2="77" y1="114" x1="24" stroke-linecap="null" stroke-linejoin="null" stroke-dasharray="null" stroke-width="5" stroke="#ff8040" fill="none"/>
  <line stroke="#ff8040" id="svg_12" y2="305" x2="80" y1="306" x1="25" stroke-linecap="null" stroke-linejoin="null" stroke-dasharray="null" stroke-width="5" fill="none"/>
  <rect stroke="#569cd6" id="svg_13" height="8" width="9" y="241" x="47" stroke-linecap="null" stroke-linejoin="null" stroke-dasharray="null" stroke-width="5" fill="none"/>
  <rect id="svg_14" stroke="#569cd6" height="8" width="9" y="289.5" x="47.5" stroke-linecap="null" stroke-linejoin="null" stroke-dasharray="null" stroke-width="5" fill="none"/>
  <rect id="svg_15" stroke="#569cd6" height="8" width="9" y="128.5" x="46.5" stroke-linecap="null" stroke-linejoin="null" stroke-dasharray="null" stroke-width="5" fill="none"/>
  <rect id="svg_16" stroke="#569cd6" height="8" width="9" y="81.5" x="46.5" stroke-linecap="null" stroke-linejoin="null" stroke-dasharray="null" stroke-width="5" fill="none"/>
  <rect id="svg_17" stroke="#569cd6" height="8" width="9" y="356.5" x="48.5" stroke-linecap="null" stroke-linejoin="null" stroke-dasharray="null" stroke-width="5" fill="none"/>
  <rect id="svg_18" stroke="#569cd6" height="8" width="9" y="257.5" x="47.5" stroke-linecap="null" stroke-linejoin="null" stroke-dasharray="null" stroke-width="5" fill="none"/>
  <rect id="svg_19" stroke="#569cd6" height="8" width="9" y="220.5" x="47.5" stroke-linecap="null" stroke-linejoin="null" stroke-dasharray="null" stroke-width="5" fill="none"/>
  <rect id="svg_20" stroke="#569cd6" height="8" width="9" y="45.5" x="45.5" stroke-linecap="null" stroke-linejoin="null" stroke-dasharray="null" stroke-width="5" fill="none"/>
  <ellipse fill="none" stroke-width="5" stroke-dasharray="null" stroke-linejoin="null" stroke-linecap="null" cx="334" cy="93.5" id="svg_1" rx="12" ry="11.5" stroke="#bd63c5"/>
  <ellipse fill="none" stroke="#ff8040" stroke-width="5" stroke-dasharray="null" stroke-linejoin="null" stroke-linecap="null" cx="251" cy="138" id="svg_9" rx="13" ry="12"/>
  <ellipse fill="none" stroke="#ff8040" stroke-width="5" stroke-dasharray="null" stroke-linejoin="null" stroke-linecap="null" cx="418" cy="138.5" rx="13" ry="12" id="svg_23"/>
  <path fill="none" stroke-width="5" stroke-dasharray="null" stroke-linejoin="null" stroke-linecap="null" d="m187.25396,209.03325c1.46113,-3.87588 3.46101,-7.15836 5.35802,-8.79429c2.03235,-1.75264 1.13066,-2.51288 -0.96587,-0.81436c-0.88204,0.71458 -1.13405,0.19572 -1.13405,-2.33491c0,-6.03787 3.86334,-9.77393 13.15875,-12.7252c7.86529,-2.49722 13.66402,-5.30551 16.0683,-7.78179l1.95919,-2.01787l0,3.5109c0,4.34128 -1.66249,10.8999 -3.50272,13.81842c-1.95215,3.09604 -8.64339,8.81087 -11.92688,10.18649c-2.94172,1.23244 -9.2243,1.59526 -12.58204,0.72662c-1.6733,-0.43287 -2.20435,-0.10214 -3.07137,1.91283c-0.57654,1.3399 -1.04826,3.24611 -1.04826,4.23601c0,1.12381 -0.55635,1.79982 -1.48124,1.79982c-1.09849,0 -1.31343,-0.44513 -0.83183,-1.72266l0,0l0,-0.00001z" id="svg_24" transform="rotate(56.23025131225586 204.35488891601568,192.66036987304685) " stroke="#57a64a"/>
  <path fill="none" stroke-width="5" stroke-dasharray="null" stroke-linejoin="null" stroke-linecap="null" d="m274.75829,209.78307c1.46112,-3.87589 3.46101,-7.15836 5.35802,-8.79429c2.03235,-1.75264 1.13066,-2.51288 -0.96587,-0.81436c-0.88203,0.71458 -1.13404,0.19572 -1.13404,-2.33491c0,-6.03787 3.86334,-9.77393 13.15875,-12.7252c7.86529,-2.49722 13.66402,-5.30551 16.0683,-7.78179l1.95919,-2.01787l0,3.51089c0,4.34128 -1.66249,10.8999 -3.50272,13.81842c-1.95215,3.09604 -8.64338,8.81087 -11.92688,10.18649c-2.94172,1.23244 -9.2243,1.59526 -12.58204,0.72662c-1.6733,-0.43287 -2.20436,-0.10213 -3.07138,1.91283c-0.57654,1.3399 -1.04826,3.24611 -1.04826,4.23601c0,1.12382 -0.55635,1.79982 -1.48124,1.79982c-1.09849,0 -1.31343,-0.44512 -0.83183,-1.72266l0,0z" transform="rotate(56.23025131225586 291.85919189453125,193.41018676757815) " stroke="#57a64a" id="svg_26"/>
  <path fill="none" stroke-width="5" stroke-dasharray="null" stroke-linejoin="null" stroke-linecap="null" d="m366.75829,210.78307c1.46112,-3.87589 3.46101,-7.15836 5.35802,-8.79429c2.03235,-1.75264 1.13066,-2.51288 -0.96587,-0.81436c-0.88203,0.71458 -1.13404,0.19572 -1.13404,-2.33491c0,-6.03787 3.86334,-9.77393 13.15875,-12.7252c7.86529,-2.49722 13.66402,-5.30551 16.0683,-7.78179l1.95919,-2.01787l0,3.51089c0,4.34128 -1.66249,10.8999 -3.50272,13.81842c-1.95215,3.09604 -8.64338,8.81087 -11.92688,10.18649c-2.94172,1.23244 -9.2243,1.59526 -12.58204,0.72662c-1.6733,-0.43287 -2.20436,-0.10213 -3.07138,1.91283c-0.57654,1.3399 -1.04826,3.24611 -1.04826,4.23601c0,1.12382 -0.55635,1.79982 -1.48124,1.79982c-1.09849,0 -1.31343,-0.44512 -0.83183,-1.72266l0,0z" transform="rotate(56.23025131225586 383.8592224121093,194.41018676757818) " stroke="#57a64a" id="svg_27"/>
  <path fill="none" stroke-width="5" stroke-dasharray="null" stroke-linejoin="null" stroke-linecap="null" d="m459.75829,211.78307c1.46112,-3.87589 3.46101,-7.15836 5.35802,-8.79429c2.03235,-1.75264 1.13066,-2.51288 -0.96587,-0.81436c-0.88203,0.71458 -1.13404,0.19572 -1.13404,-2.33491c0,-6.03787 3.86334,-9.77393 13.15875,-12.7252c7.86529,-2.49722 13.66402,-5.30551 16.0683,-7.78179l1.95919,-2.01787l0,3.51089c0,4.34128 -1.66249,10.8999 -3.50272,13.81842c-1.95215,3.09604 -8.64338,8.81087 -11.92688,10.18649c-2.94172,1.23244 -9.2243,1.59526 -12.58204,0.72662c-1.6733,-0.43287 -2.20436,-0.10213 -3.07138,1.91283c-0.57654,1.3399 -1.04826,3.24611 -1.04826,4.23601c0,1.12382 -0.55635,1.79982 -1.48124,1.79982c-1.09849,0 -1.31343,-0.44512 -0.83183,-1.72266l0,0z" transform="rotate(56.23025131225586 476.8592224121094,195.41018676757815) " stroke="#57a64a" id="svg_28"/>
  <line id="svg_2" y2="123" x2="272" y1="100" x1="314" stroke-linecap="null" stroke-linejoin="null" stroke-dasharray="null" stroke-width="5" stroke="#000000" fill="none"/>
  <line id="svg_4" y2="129" x2="402" y1="100" x1="351" stroke-linecap="null" stroke-linejoin="null" stroke-dasharray="null" stroke-width="5" stroke="#000000" fill="none"/>
  <line id="svg_21" y2="177" x2="212" y1="152" x1="235" stroke-linecap="null" stroke-linejoin="null" stroke-dasharray="null" stroke-width="5" stroke="#000000" fill="none"/>
  <line id="svg_22" y2="177" x2="278" y1="153" x1="262" stroke-linecap="null" stroke-linejoin="null" stroke-dasharray="null" stroke-width="5" stroke="#000000" fill="none"/>
  <line id="svg_25" y2="180" x2="389" y1="151" x1="402" stroke-linecap="null" stroke-linejoin="null" stroke-dasharray="null" stroke-width="5" stroke="#000000" fill="none"/>
  <line id="svg_29" y2="180" x2="460" y1="153" x1="430" stroke-linecap="null" stroke-linejoin="null" stroke-dasharray="null" stroke-width="5" stroke="#000000" fill="none"/>
  <rect id="svg_30" stroke="#569cd6" height="8" width="9" y="224.5" x="196.5" stroke-linecap="null" stroke-linejoin="null" stroke-dasharray="null" stroke-width="5" fill="none"/>
  <rect id="svg_31" stroke="#569cd6" height="8" width="9" y="222.5" x="287.5" stroke-linecap="null" stroke-linejoin="null" stroke-dasharray="null" stroke-width="5" fill="none"/>
  <rect id="svg_32" stroke="#569cd6" height="8" width="9" y="241.5" x="288.5" stroke-linecap="null" stroke-linejoin="null" stroke-dasharray="null" stroke-width="5" fill="none"/>
  <rect id="svg_33" stroke="#569cd6" height="8" width="9" y="262.5" x="288.5" stroke-linecap="null" stroke-linejoin="null" stroke-dasharray="null" stroke-width="5" fill="none"/>
  <rect id="svg_34" stroke="#569cd6" height="8" width="9" y="280.5" x="288.5" stroke-linecap="null" stroke-linejoin="null" stroke-dasharray="null" stroke-width="5" fill="none"/>
  <rect id="svg_35" stroke="#569cd6" height="8" width="9" y="226.5" x="381.5" stroke-linecap="null" stroke-linejoin="null" stroke-dasharray="null" stroke-width="5" fill="none"/>
  <rect id="svg_36" stroke="#569cd6" height="8" width="9" y="224.5" x="478.5" stroke-linecap="null" stroke-linejoin="null" stroke-dasharray="null" stroke-width="5" fill="none"/>
  <rect id="svg_37" stroke="#569cd6" height="8" width="9" y="246.5" x="479.5" stroke-linecap="null" stroke-linejoin="null" stroke-dasharray="null" stroke-width="5" fill="none"/>
 </g>
</svg>