<svg width="600" height="650" xmlns="http://www.w3.org/2000/svg" xmlns:svg="http://www.w3.org/2000/svg">
 <!-- Created with SVG-edit - http://svg-edit.googlecode.com/ -->
 <g>
  <title>Layer 1</title>
  <path fill="#FF0000" stroke="#000000" stroke-width="5" stroke-dasharray="null" stroke-linejoin="null" stroke-linecap="null" d="m53,384l-3,-363l3,363z" id="svg_3"/>
  <line fill="none" stroke-width="5" stroke-dasharray="null" stroke-linejoin="null" stroke-linecap="null" x1="34" y1="33" x2="51" y2="19" id="svg_5" stroke="#000000"/>
  <line fill="none" stroke="#000000" stroke-width="5" stroke-dasharray="null" stroke-linejoin="null" stroke-linecap="null" x1="36" y1="373" x2="54" y2="384" id="svg_6"/>
  <line fill="none" stroke-width="5" stroke-dasharray="null" stroke-linejoin="null" stroke-linecap="null" x1="66" y1="33" x2="48" y2="19" id="svg_7" stroke="#000000"/>
  <line fill="none" stroke="#000000" stroke-width="5" stroke-dasharray="null" stroke-linejoin="null" stroke-linecap="null" x1="69" y1="373" x2="52" y2="384" id="svg_8"/>
  <line fill="none" stroke="#bd63c5" stroke-width="5" stroke-dasharray="null" stroke-linejoin="null" stroke-linecap="null" x1="17" y1="212" x2="88" y2="212" id="svg_10"/>
  <line fill="none" stroke="#ff8040" stroke-width="5" stroke-dasharray="null" stroke-linejoin="null" stroke-linecap="null" x1="24" y1="114" x2="77" y2="113" id="svg_11"/>
  <line fill="none" stroke-width="5" stroke-dasharray="null" stroke-linejoin="null" stroke-linecap="null" x1="25" y1="306" x2="80" y2="305" id="svg_12" stroke="#ff8040"/>
  <rect fill="none" stroke-width="5" stroke-dasharray="null" stroke-linejoin="null" stroke-linecap="null" x="47" y="241" width="9" height="8" id="svg_13" stroke="#569cd6"/>
  <rect fill="none" stroke-width="5" stroke-dasharray="null" stroke-linejoin="null" stroke-linecap="null" x="47.5" y="289.5" width="9" height="8" stroke="#569cd6" id="svg_14"/>
  <rect fill="none" stroke-width="5" stroke-dasharray="null" stroke-linejoin="null" stroke-linecap="null" x="46.5" y="135.5" width="9" height="8" stroke="#569cd6" id="svg_15"/>
  <rect fill="none" stroke-width="5" stroke-dasharray="null" stroke-linejoin="null" stroke-linecap="null" x="46.5" y="81.5" width="9" height="8" stroke="#569cd6" id="svg_16"/>
  <rect fill="none" stroke-width="5" stroke-dasharray="null" stroke-linejoin="null" stroke-linecap="null" x="48.5" y="356.5" width="9" height="8" stroke="#569cd6" id="svg_17"/>
  <rect fill="none" stroke-width="5" stroke-dasharray="null" stroke-linejoin="null" stroke-linecap="null" x="47.5" y="257.5" width="9" height="8" stroke="#569cd6" id="svg_18"/>
  <rect fill="none" stroke-width="5" stroke-dasharray="null" stroke-linejoin="null" stroke-linecap="null" x="47.5" y="220.5" width="9" height="8" stroke="#569cd6" id="svg_19"/>
  <rect fill="none" stroke-width="5" stroke-dasharray="null" stroke-linejoin="null" stroke-linecap="null" x="45.5" y="61.5" width="9" height="8" stroke="#569cd6" id="svg_20"/>
  <ellipse stroke="#bd63c5" ry="11.5" rx="12" id="svg_1" cy="446.5" cx="300" stroke-linecap="null" stroke-linejoin="null" stroke-dasharray="null" stroke-width="5" fill="none"/>
  <ellipse ry="12" rx="13" id="svg_9" cy="507" cx="220" stroke-linecap="null" stroke-linejoin="null" stroke-dasharray="null" stroke-width="5" stroke="#ff8040" fill="none"/>
  <ellipse id="svg_23" ry="12" rx="13" cy="503.5" cx="357" stroke-linecap="null" stroke-linejoin="null" stroke-dasharray="null" stroke-width="5" stroke="#ff8040" fill="none"/>
  <path stroke="#57a64a" transform="rotate(56.23025131225586 36.354919433593764,573.1603393554688) " id="svg_24" d="m25.1447,582.2633c0.95782,-2.1549 2.26881,-3.97988 3.51237,-4.88942c1.33228,-0.97443 0.74119,-1.3971 -0.63316,-0.45276c-0.57821,0.39729 -0.74341,0.10882 -0.74341,-1.29815c0,-3.35691 2.53255,-5.43407 8.62602,-7.07491c5.15597,-1.3884 8.95724,-2.94974 10.53333,-4.32649l1.28432,-1.12189l0,1.95198c0,2.41365 -1.08982,6.06009 -2.29615,7.68271c-1.2797,1.72132 -5.66604,4.89863 -7.81848,5.66345c-1.9284,0.68521 -6.04685,0.88693 -8.24796,0.40398c-1.09691,-0.24067 -1.44503,-0.05679 -2.01339,1.06349c-0.37794,0.74495 -0.68717,1.80476 -0.68717,2.35512c0,0.62481 -0.36471,1.00066 -0.971,1.00066c-0.7201,0 -0.861,-0.24748 -0.54529,-0.95776l0,0l0,-0.00001l-0.00003,0z" stroke-linecap="null" stroke-linejoin="null" stroke-dasharray="null" stroke-width="5" fill="none"/>
  <rect fill="none" stroke-width="5" stroke-dasharray="null" stroke-linejoin="null" stroke-linecap="null" x="63.5" y="597.5" width="9" height="8" stroke="#569cd6" id="svg_30"/>
  <rect fill="none" stroke-width="5" stroke-dasharray="null" stroke-linejoin="null" stroke-linecap="null" x="63.5" y="614.5" width="9" height="8" stroke="#569cd6" id="svg_31"/>
  <rect fill="none" stroke-width="5" stroke-dasharray="null" stroke-linejoin="null" stroke-linecap="null" x="93.5" y="597.5" width="9" height="8" stroke="#569cd6" id="svg_32"/>
  <rect fill="none" stroke-width="5" stroke-dasharray="null" stroke-linejoin="null" stroke-linecap="null" x="123.5" y="596.5" width="9" height="8" stroke="#569cd6" id="svg_33"/>
  <rect fill="none" stroke-width="5" stroke-dasharray="null" stroke-linejoin="null" stroke-linecap="null" x="487.5" y="589.5" width="9" height="8" stroke="#569cd6" id="svg_34"/>
  <rect fill="none" stroke-width="5" stroke-dasharray="null" stroke-linejoin="null" stroke-linecap="null" x="346.5" y="593.5" width="9" height="8" stroke="#569cd6" id="svg_35"/>
  <rect fill="none" stroke-width="5" stroke-dasharray="null" stroke-linejoin="null" stroke-linecap="null" x="518.5" y="589.5" width="9" height="8" stroke="#569cd6" id="svg_36"/>
  <rect fill="none" stroke-width="5" stroke-dasharray="null" stroke-linejoin="null" stroke-linecap="null" x="547.5" y="589.5" width="9" height="8" stroke="#569cd6" id="svg_37"/>
  <path id="svg_38" fill="#FF0000" stroke="#000000" stroke-width="5" stroke-dasharray="null" stroke-linejoin="null" stroke-linecap="null" d="m134.5,384l-3,-363l3,363z"/>
  <line id="svg_39" fill="none" stroke-width="5" stroke-dasharray="null" stroke-linejoin="null" stroke-linecap="null" x1="115.5" y1="33" x2="132.5" y2="19" stroke="#000000"/>
  <line id="svg_40" fill="none" stroke="#000000" stroke-width="5" stroke-dasharray="null" stroke-linejoin="null" stroke-linecap="null" x1="117.5" y1="373" x2="135.5" y2="384"/>
  <line id="svg_41" fill="none" stroke-width="5" stroke-dasharray="null" stroke-linejoin="null" stroke-linecap="null" x1="147.5" y1="33" x2="129.5" y2="19" stroke="#000000"/>
  <line id="svg_42" fill="none" stroke="#000000" stroke-width="5" stroke-dasharray="null" stroke-linejoin="null" stroke-linecap="null" x1="150.5" y1="373" x2="133.5" y2="384"/>
  <line id="svg_43" fill="none" stroke="#bd63c5" stroke-width="5" stroke-dasharray="null" stroke-linejoin="null" stroke-linecap="null" x1="98.5" y1="212" x2="169.5" y2="212"/>
  <line id="svg_44" fill="none" stroke="#ff8040" stroke-width="5" stroke-dasharray="null" stroke-linejoin="null" stroke-linecap="null" x1="105.5" y1="114" x2="158.5" y2="113"/>
  <line id="svg_45" fill="none" stroke-width="5" stroke-dasharray="null" stroke-linejoin="null" stroke-linecap="null" x1="106.5" y1="306" x2="161.5" y2="305" stroke="#ff8040"/>
  <rect id="svg_46" fill="none" stroke-width="5" stroke-dasharray="null" stroke-linejoin="null" stroke-linecap="null" x="128.5" y="241" width="9" height="8" stroke="#569cd6"/>
  <rect id="svg_47" fill="none" stroke-width="5" stroke-dasharray="null" stroke-linejoin="null" stroke-linecap="null" x="129" y="289.5" width="9" height="8" stroke="#569cd6"/>
  <rect id="svg_48" fill="none" stroke-width="5" stroke-dasharray="null" stroke-linejoin="null" stroke-linecap="null" x="128" y="192.5" width="9" height="8" stroke="#569cd6"/>
  <rect id="svg_49" fill="none" stroke-width="5" stroke-dasharray="null" stroke-linejoin="null" stroke-linecap="null" x="128" y="81.5" width="9" height="8" stroke="#569cd6"/>
  <rect id="svg_50" fill="none" stroke-width="5" stroke-dasharray="null" stroke-linejoin="null" stroke-linecap="null" x="130" y="338.5" width="9" height="8" stroke="#569cd6"/>
  <rect id="svg_51" fill="none" stroke-width="5" stroke-dasharray="null" stroke-linejoin="null" stroke-linecap="null" x="129" y="319.5" width="9" height="8" stroke="#569cd6"/>
  <rect id="svg_52" fill="none" stroke-width="5" stroke-dasharray="null" stroke-linejoin="null" stroke-linecap="null" x="128" y="122.5" width="9" height="8" stroke="#569cd6"/>
  <rect id="svg_53" fill="none" stroke-width="5" stroke-dasharray="null" stroke-linejoin="null" stroke-linecap="null" x="127" y="45.5" width="9" height="8" stroke="#569cd6"/>
  <line id="svg_54" y2="244" x2="128" y1="360" x1="56" stroke-linecap="null" stroke-linejoin="null" stroke-dasharray="null" stroke="#569cd6" fill="none"/>
  <line id="svg_55" y2="139" x2="56" y1="47" x1="128" stroke-linecap="null" stroke-linejoin="null" stroke-dasharray="null" stroke="#569cd6" fill="none"/>
  <line id="svg_56" y2="291" x2="127" y1="246" x1="55" stroke-linecap="null" stroke-linejoin="null" stroke-dasharray="null" stroke="#569cd6" fill="none"/>
  <line id="svg_57" y2="194" x2="127" y1="88" x1="54" stroke-linecap="null" stroke-linejoin="null" stroke-dasharray="null" stroke="#569cd6" fill="none"/>
  <line id="svg_58" y2="125" x2="128" y1="224" x1="56" stroke-linecap="null" stroke-linejoin="null" stroke-dasharray="null" stroke="#569cd6" fill="none"/>
  <line id="svg_59" y2="321" x2="128" y1="292" x1="56" stroke-linecap="null" stroke-linejoin="null" stroke-dasharray="null" stroke="#569cd6" fill="none"/>
  <line id="svg_60" y2="342" x2="129" y1="259" x1="55" stroke-linecap="null" stroke-linejoin="null" stroke-dasharray="null" stroke="#569cd6" fill="none"/>
  <line id="svg_61" y2="87" x2="127" y1="67" x1="54" stroke-linecap="null" stroke-linejoin="null" stroke-dasharray="null" stroke="#569cd6" fill="none"/>
  <g id="svg_67">
   <path id="svg_62" fill="#FF0000" stroke="#000000" stroke-width="5" stroke-dasharray="null" stroke-linejoin="null" stroke-linecap="null" d="m392.5,394l-3,-363l3,363z"/>
   <line id="svg_63" fill="none" stroke-width="5" stroke-dasharray="null" stroke-linejoin="null" stroke-linecap="null" x1="373.5" y1="43" x2="390.5" y2="29" stroke="#000000"/>
   <line id="svg_64" fill="none" stroke="#000000" stroke-width="5" stroke-dasharray="null" stroke-linejoin="null" stroke-linecap="null" x1="375.5" y1="383" x2="393.5" y2="394"/>
   <line id="svg_65" fill="none" stroke-width="5" stroke-dasharray="null" stroke-linejoin="null" stroke-linecap="null" x1="405.5" y1="43" x2="387.5" y2="29" stroke="#000000"/>
   <line id="svg_66" fill="none" stroke="#000000" stroke-width="5" stroke-dasharray="null" stroke-linejoin="null" stroke-linecap="null" x1="408.5" y1="383" x2="391.5" y2="394"/>
  </g>
  <g transform="rotate(90.1418228149414 391,211.50000000000006) " id="svg_68">
   <path id="svg_69" fill="#FF0000" stroke="#000000" stroke-width="5" stroke-dasharray="null" stroke-linejoin="null" stroke-linecap="null" d="m392.5,394l-3,-363l3,363z"/>
   <line id="svg_70" fill="none" stroke-width="5" stroke-dasharray="null" stroke-linejoin="null" stroke-linecap="null" x1="373.5" y1="43" x2="390.5" y2="29" stroke="#000000"/>
   <line id="svg_71" fill="none" stroke="#000000" stroke-width="5" stroke-dasharray="null" stroke-linejoin="null" stroke-linecap="null" x1="375.5" y1="383" x2="393.5" y2="394"/>
   <line id="svg_72" fill="none" stroke-width="5" stroke-dasharray="null" stroke-linejoin="null" stroke-linecap="null" x1="405.5" y1="43" x2="387.5" y2="29" stroke="#000000"/>
   <line id="svg_73" fill="none" stroke="#000000" stroke-width="5" stroke-dasharray="null" stroke-linejoin="null" stroke-linecap="null" x1="408.5" y1="383" x2="391.5" y2="394"/>
  </g>
  <rect stroke="#bd63c5" fill-opacity="0.2" id="svg_74" height="325.00001" width="323" y="51" x="228" stroke-linecap="null" stroke-linejoin="null" stroke-dasharray="null" stroke-width="0" fill="#ba63c5"/>
  <rect stroke="#ff8040" fill-opacity="0.2" id="svg_75" height="64" width="69" y="139" x="314" stroke-linecap="null" stroke-linejoin="null" stroke-dasharray="null" stroke-width="5" fill="#ff8040"/>
  <rect id="svg_76" stroke="#ff8040" fill-opacity="0.2" height="64" width="69" y="222.5" x="400.5" stroke-linecap="null" stroke-linejoin="null" stroke-dasharray="null" stroke-width="5" fill="#ff8040"/>
  <rect id="svg_77" stroke="#ff8040" fill-opacity="0.2" height="64" width="69" y="138.5" x="400.5" stroke-linecap="null" stroke-linejoin="null" stroke-dasharray="null" stroke-width="5" fill="#ff8040"/>
  <rect id="svg_78" stroke="#ff8040" fill-opacity="0.2" height="64" width="69" y="222.5" x="314.5" stroke-linecap="null" stroke-linejoin="null" stroke-dasharray="null" stroke-width="5" fill="#ff8040"/>
  <rect id="svg_79" stroke="#ff8040" fill-opacity="0.2" height="64" width="69" y="300.5" x="314.5" stroke-linecap="null" stroke-linejoin="null" stroke-dasharray="null" stroke-width="0" fill="#ff8040"/>
  <rect id="svg_80" stroke="#ff8040" fill-opacity="0.2" height="64" width="69" y="300.5" x="238.5" stroke-linecap="null" stroke-linejoin="null" stroke-dasharray="null" stroke-width="0" fill="#ff8040"/>
  <rect id="svg_81" stroke="#ff8040" fill-opacity="0.2" height="64" width="69" y="222.5" x="236.5" stroke-linecap="null" stroke-linejoin="null" stroke-dasharray="null" stroke-width="0" fill="#ff8040"/>
  <rect id="svg_82" stroke="#ff8040" fill-opacity="0.2" height="64" width="69" y="301.5" x="400.5" stroke-linecap="null" stroke-linejoin="null" stroke-dasharray="null" stroke-width="0" fill="#ff8040"/>
  <rect id="svg_83" stroke="#ff8040" fill-opacity="0.2" height="64" width="69" y="301.5" x="474.5" stroke-linecap="null" stroke-linejoin="null" stroke-dasharray="null" stroke-width="0" fill="#ff8040"/>
  <rect id="svg_84" stroke="#ff8040" fill-opacity="0.2" height="64" width="69" y="221.5" x="476.5" stroke-linecap="null" stroke-linejoin="null" stroke-dasharray="null" stroke-width="0" fill="#ff8040"/>
  <rect id="svg_85" stroke="#ff8040" fill-opacity="0.2" height="64" width="69" y="139.5" x="235.5" stroke-linecap="null" stroke-linejoin="null" stroke-dasharray="null" stroke-width="0" fill="#ff8040"/>
  <rect id="svg_86" stroke="#ff8040" fill-opacity="0.2" height="64" width="69" y="63.5" x="312.5" stroke-linecap="null" stroke-linejoin="null" stroke-dasharray="null" stroke-width="0" fill="#ff8040"/>
  <rect id="svg_87" stroke="#ff8040" fill-opacity="0.2" height="64" width="69" y="62.5" x="236.5" stroke-linecap="null" stroke-linejoin="null" stroke-dasharray="null" stroke-width="0" fill="#ff8040"/>
  <rect id="svg_88" stroke="#ff8040" fill-opacity="0.2" height="64" width="69" y="64.5" x="398.5" stroke-linecap="null" stroke-linejoin="null" stroke-dasharray="null" stroke-width="0" fill="#ff8040"/>
  <rect id="svg_89" stroke="#ff8040" fill-opacity="0.2" height="64" width="69" y="64.5" x="474.5" stroke-linecap="null" stroke-linejoin="null" stroke-dasharray="null" stroke-width="0" fill="#ff8040"/>
  <rect id="svg_90" stroke="#ff8040" fill-opacity="0.2" height="64" width="69" y="138.5" x="476.5" stroke-linecap="null" stroke-linejoin="null" stroke-dasharray="null" stroke-width="0" fill="#ff8040"/>
  <rect id="svg_91" fill="none" stroke-width="5" stroke-dasharray="null" stroke-linejoin="null" stroke-linecap="null" x="242.5" y="236.5" width="9" height="8" stroke="#569cd6"/>
  <rect id="svg_92" fill="none" stroke-width="5" stroke-dasharray="null" stroke-linejoin="null" stroke-linecap="null" x="322.5" y="316.5" width="9" height="8" stroke="#569cd6"/>
  <rect id="svg_93" fill="none" stroke-width="5" stroke-dasharray="null" stroke-linejoin="null" stroke-linecap="null" x="345.5" y="333.5" width="9" height="8" stroke="#569cd6"/>
  <rect id="svg_94" fill="none" stroke-width="5" stroke-dasharray="null" stroke-linejoin="null" stroke-linecap="null" x="356.5" y="272.5" width="9" height="8" stroke="#569cd6"/>
  <rect id="svg_95" fill="none" stroke-width="5" stroke-dasharray="null" stroke-linejoin="null" stroke-linecap="null" x="503.5" y="190.5" width="9" height="8" stroke="#569cd6"/>
  <rect id="svg_96" fill="none" stroke-width="5" stroke-dasharray="null" stroke-linejoin="null" stroke-linecap="null" x="366.5" y="144.5" width="9" height="8" stroke="#569cd6"/>
  <rect id="svg_97" fill="none" stroke-width="5" stroke-dasharray="null" stroke-linejoin="null" stroke-linecap="null" x="523.5" y="96.5" width="9" height="8" stroke="#569cd6"/>
  <rect id="svg_98" fill="none" stroke-width="5" stroke-dasharray="null" stroke-linejoin="null" stroke-linecap="null" x="442.5" y="70.5" width="9" height="8" stroke="#569cd6"/>
  <ellipse id="svg_99" ry="12" rx="13" cy="509.5" cx="95" stroke-linecap="null" stroke-linejoin="null" stroke-dasharray="null" stroke-width="5" stroke="#ff8040" fill="none"/>
  <ellipse id="svg_100" ry="12" rx="13" cy="503.5" cx="493" stroke-linecap="null" stroke-linejoin="null" stroke-dasharray="null" stroke-width="5" stroke="#ff8040" fill="none"/>
  <path id="svg_117" stroke="#57a64a" transform="rotate(56.23025131225586 64.91528320312499,572.38818359375) " d="m53.70506,581.49111c0.95782,-2.1549 2.26881,-3.97988 3.51236,-4.88942c1.33228,-0.97442 0.74119,-1.3971 -0.63316,-0.45276c-0.5782,0.39729 -0.74341,0.10881 -0.74341,-1.29816c0,-3.35691 2.53256,-5.43407 8.62602,-7.07491c5.15597,-1.38839 8.95724,-2.94974 10.53333,-4.32649l1.28432,-1.12189l0,1.95198c0,2.41365 -1.08982,6.06009 -2.29616,7.68271c-1.2797,1.72133 -5.66604,4.89864 -7.81848,5.66345c-1.9284,0.68521 -6.04685,0.88693 -8.24797,0.40399c-1.0969,-0.24067 -1.44502,-0.05679 -2.01339,1.06348c-0.37794,0.74496 -0.68717,1.80476 -0.68717,2.35512c0,0.62482 -0.3647,1.00066 -0.971,1.00066c-0.7201,0 -0.861,-0.24748 -0.54529,-0.95776l0,0l0,0z" stroke-linecap="null" stroke-linejoin="null" stroke-dasharray="null" stroke-width="5" fill="none"/>
  <path id="svg_118" stroke="#57a64a" transform="rotate(56.23025131225586 94.91528320312506,572.38818359375) " d="m83.70506,581.49111c0.95782,-2.1549 2.26881,-3.97988 3.51236,-4.88942c1.33228,-0.97442 0.74119,-1.3971 -0.63316,-0.45276c-0.5782,0.39729 -0.74341,0.10881 -0.74341,-1.29816c0,-3.35691 2.53256,-5.43407 8.62602,-7.07491c5.15597,-1.38839 8.95724,-2.94974 10.53333,-4.32649l1.28432,-1.12189l0,1.95198c0,2.41365 -1.08982,6.06009 -2.29616,7.68271c-1.2797,1.72133 -5.66604,4.89864 -7.81848,5.66345c-1.9284,0.68521 -6.04685,0.88693 -8.24797,0.40399c-1.0969,-0.24067 -1.44502,-0.05679 -2.01339,1.06348c-0.37794,0.74496 -0.68717,1.80476 -0.68717,2.35512c0,0.62482 -0.3647,1.00066 -0.971,1.00066c-0.7201,0 -0.861,-0.24748 -0.54529,-0.95776l0,0l0,0z" stroke-linecap="null" stroke-linejoin="null" stroke-dasharray="null" stroke-width="5" fill="none"/>
  <path id="svg_119" stroke="#57a64a" transform="rotate(56.23025131225586 124.915283203125,572.38818359375) " d="m113.70506,581.49111c0.95782,-2.1549 2.26881,-3.97988 3.51236,-4.88942c1.33228,-0.97442 0.74119,-1.3971 -0.63316,-0.45276c-0.5782,0.39729 -0.74341,0.10881 -0.74341,-1.29816c0,-3.35691 2.53256,-5.43407 8.62602,-7.07491c5.15597,-1.38839 8.95724,-2.94974 10.53333,-4.32649l1.28432,-1.12189l0,1.95198c0,2.41365 -1.08982,6.06009 -2.29616,7.68271c-1.2797,1.72133 -5.66604,4.89864 -7.81848,5.66345c-1.9284,0.68521 -6.04685,0.88693 -8.24797,0.40399c-1.0969,-0.24067 -1.44502,-0.05679 -2.01339,1.06348c-0.37794,0.74496 -0.68717,1.80476 -0.68717,2.35512c0,0.62482 -0.3647,1.00066 -0.971,1.00066c-0.7201,0 -0.861,-0.24748 -0.54529,-0.95776l0,0l0,0z" stroke-linecap="null" stroke-linejoin="null" stroke-dasharray="null" stroke-width="5" fill="none"/>
  <path id="svg_120" stroke="#57a64a" transform="rotate(56.23025131225586 179.63507080078128,573.7742309570312) " d="m168.42487,582.87719c0.95782,-2.1549 2.26881,-3.97988 3.51236,-4.88942c1.33228,-0.97442 0.74119,-1.3971 -0.63316,-0.45276c-0.5782,0.39729 -0.74341,0.10881 -0.74341,-1.29816c0,-3.35691 2.53256,-5.43407 8.62602,-7.07491c5.15597,-1.38839 8.95724,-2.94974 10.53333,-4.32649l1.28432,-1.12189l0,1.95198c0,2.41365 -1.08982,6.06009 -2.29616,7.68271c-1.2797,1.72133 -5.66604,4.89864 -7.81848,5.66345c-1.9284,0.68521 -6.04685,0.88693 -8.24797,0.40399c-1.0969,-0.24067 -1.44502,-0.05679 -2.01339,1.06348c-0.37794,0.74496 -0.68717,1.80476 -0.68717,2.35512c0,0.62482 -0.3647,1.00066 -0.971,1.00066c-0.7201,0 -0.861,-0.24748 -0.54529,-0.95776l0,0l0,0z" stroke-linecap="null" stroke-linejoin="null" stroke-dasharray="null" stroke-width="5" fill="none"/>
  <path id="svg_121" stroke="#57a64a" transform="rotate(56.23025131225586 208.19543457031247,573.0020751953125) " d="m196.98523,582.105c0.95782,-2.1549 2.26881,-3.97988 3.51236,-4.88942c1.33228,-0.97442 0.74119,-1.3971 -0.63316,-0.45276c-0.5782,0.39729 -0.74341,0.10881 -0.74341,-1.29816c0,-3.35691 2.53256,-5.43407 8.62602,-7.07491c5.15597,-1.38839 8.95724,-2.94974 10.53333,-4.32649l1.28432,-1.12189l0,1.95198c0,2.41365 -1.08982,6.06009 -2.29616,7.68271c-1.2797,1.72133 -5.66604,4.89864 -7.81848,5.66345c-1.9284,0.68521 -6.04685,0.88693 -8.24797,0.40399c-1.0969,-0.24067 -1.44502,-0.05679 -2.01339,1.06348c-0.37794,0.74496 -0.68717,1.80476 -0.68717,2.35512c0,0.62482 -0.3647,1.00066 -0.971,1.00066c-0.7201,0 -0.861,-0.24748 -0.54529,-0.95776l0,0l0,0z" stroke-linecap="null" stroke-linejoin="null" stroke-dasharray="null" stroke-width="5" fill="none"/>
  <path id="svg_122" stroke="#57a64a" transform="rotate(56.23025131225586 238.19543457031241,573.0020751953125) " d="m226.98523,582.105c0.95782,-2.1549 2.26881,-3.97988 3.51236,-4.88942c1.33228,-0.97442 0.74119,-1.3971 -0.63316,-0.45276c-0.5782,0.39729 -0.74341,0.10881 -0.74341,-1.29816c0,-3.35691 2.53256,-5.43407 8.62602,-7.07491c5.15597,-1.38839 8.95724,-2.94974 10.53333,-4.32649l1.28432,-1.12189l0,1.95198c0,2.41365 -1.08982,6.06009 -2.29616,7.68271c-1.2797,1.72133 -5.66604,4.89864 -7.81848,5.66345c-1.9284,0.68521 -6.04685,0.88693 -8.24797,0.40399c-1.0969,-0.24067 -1.44502,-0.05679 -2.01339,1.06348c-0.37794,0.74496 -0.68717,1.80476 -0.68717,2.35512c0,0.62482 -0.3647,1.00066 -0.971,1.00066c-0.7201,0 -0.861,-0.24748 -0.54529,-0.95776l0,0l0,0z" stroke-linecap="null" stroke-linejoin="null" stroke-dasharray="null" stroke-width="5" fill="none"/>
  <path id="svg_123" stroke="#57a64a" transform="rotate(56.23025131225586 268.1954345703125,573.0020751953126) " d="m256.98523,582.105c0.95782,-2.1549 2.26881,-3.97988 3.51236,-4.88942c1.33228,-0.97442 0.74119,-1.3971 -0.63316,-0.45276c-0.5782,0.39729 -0.74341,0.10881 -0.74341,-1.29816c0,-3.35691 2.53256,-5.43407 8.62602,-7.07491c5.15597,-1.38839 8.95724,-2.94974 10.53333,-4.32649l1.28432,-1.12189l0,1.95198c0,2.41365 -1.08982,6.06009 -2.29616,7.68271c-1.2797,1.72133 -5.66604,4.89864 -7.81848,5.66345c-1.9284,0.68521 -6.04685,0.88693 -8.24797,0.40399c-1.0969,-0.24067 -1.44502,-0.05679 -2.01339,1.06348c-0.37794,0.74496 -0.68717,1.80476 -0.68717,2.35512c0,0.62482 -0.3647,1.00066 -0.971,1.00066c-0.7201,0 -0.861,-0.24748 -0.54529,-0.95776l0,0l0,0z" stroke-linecap="null" stroke-linejoin="null" stroke-dasharray="null" stroke-width="5" fill="none"/>
  <path id="svg_124" stroke="#57a64a" transform="rotate(56.23025131225586 317.6350708007813,570.7742309570311) " d="m306.42487,579.87719c0.95782,-2.1549 2.26881,-3.97988 3.51236,-4.88942c1.33228,-0.97442 0.74119,-1.3971 -0.63316,-0.45276c-0.5782,0.39729 -0.74341,0.10881 -0.74341,-1.29816c0,-3.35691 2.53256,-5.43407 8.62602,-7.07491c5.15597,-1.38839 8.95724,-2.94974 10.53333,-4.32649l1.28432,-1.12189l0,1.95198c0,2.41365 -1.08982,6.06009 -2.29616,7.68271c-1.2797,1.72133 -5.66604,4.89864 -7.81848,5.66345c-1.9284,0.68521 -6.04685,0.88693 -8.24797,0.40399c-1.0969,-0.24067 -1.44502,-0.05679 -2.01339,1.06348c-0.37794,0.74496 -0.68717,1.80476 -0.68717,2.35512c0,0.62482 -0.3647,1.00066 -0.971,1.00066c-0.7201,0 -0.861,-0.24748 -0.54529,-0.95776l0,0l0,0z" stroke-linecap="null" stroke-linejoin="null" stroke-dasharray="null" stroke-width="5" fill="none"/>
  <path id="svg_125" stroke="#57a64a" transform="rotate(56.23025131225586 346.19543457031267,570.0020751953124) " d="m334.98523,579.105c0.95782,-2.1549 2.26881,-3.97988 3.51236,-4.88942c1.33228,-0.97442 0.74119,-1.3971 -0.63316,-0.45276c-0.5782,0.39729 -0.74341,0.10881 -0.74341,-1.29816c0,-3.35691 2.53256,-5.43407 8.62602,-7.07491c5.15597,-1.38839 8.95724,-2.94974 10.53333,-4.32649l1.28432,-1.12189l0,1.95198c0,2.41365 -1.08982,6.06009 -2.29616,7.68271c-1.2797,1.72133 -5.66604,4.89864 -7.81848,5.66345c-1.9284,0.68521 -6.04685,0.88693 -8.24797,0.40399c-1.0969,-0.24067 -1.44502,-0.05679 -2.01339,1.06348c-0.37794,0.74496 -0.68717,1.80476 -0.68717,2.35512c0,0.62482 -0.3647,1.00066 -0.971,1.00066c-0.7201,0 -0.861,-0.24748 -0.54529,-0.95776l0,0l0,0z" stroke-linecap="null" stroke-linejoin="null" stroke-dasharray="null" stroke-width="5" fill="none"/>
  <path id="svg_126" stroke="#57a64a" transform="rotate(56.23025131225586 376.1954345703126,570.0020751953124) " d="m364.98523,579.105c0.95782,-2.1549 2.26881,-3.97988 3.51236,-4.88942c1.33228,-0.97442 0.74119,-1.3971 -0.63316,-0.45276c-0.5782,0.39729 -0.74341,0.10881 -0.74341,-1.29816c0,-3.35691 2.53256,-5.43407 8.62602,-7.07491c5.15597,-1.38839 8.95724,-2.94974 10.53333,-4.32649l1.28432,-1.12189l0,1.95198c0,2.41365 -1.08982,6.06009 -2.29616,7.68271c-1.2797,1.72133 -5.66604,4.89864 -7.81848,5.66345c-1.9284,0.68521 -6.04685,0.88693 -8.24797,0.40399c-1.0969,-0.24067 -1.44502,-0.05679 -2.01339,1.06348c-0.37794,0.74496 -0.68717,1.80476 -0.68717,2.35512c0,0.62482 -0.3647,1.00066 -0.971,1.00066c-0.7201,0 -0.861,-0.24748 -0.54529,-0.95776l0,0l0,0z" stroke-linecap="null" stroke-linejoin="null" stroke-dasharray="null" stroke-width="5" fill="none"/>
  <path id="svg_127" stroke="#57a64a" transform="rotate(56.23025131225586 406.19543457031256,570.0020751953125) " d="m394.98523,579.105c0.95782,-2.1549 2.26881,-3.97988 3.51236,-4.88942c1.33228,-0.97442 0.74119,-1.3971 -0.63316,-0.45276c-0.5782,0.39729 -0.74341,0.10881 -0.74341,-1.29816c0,-3.35691 2.53256,-5.43407 8.62602,-7.07491c5.15597,-1.38839 8.95724,-2.94974 10.53333,-4.32649l1.28432,-1.12189l0,1.95198c0,2.41365 -1.08982,6.06009 -2.29616,7.68271c-1.2797,1.72133 -5.66604,4.89864 -7.81848,5.66345c-1.9284,0.68521 -6.04685,0.88693 -8.24797,0.40399c-1.0969,-0.24067 -1.44502,-0.05679 -2.01339,1.06348c-0.37794,0.74496 -0.68717,1.80476 -0.68717,2.35512c0,0.62482 -0.3647,1.00066 -0.971,1.00066c-0.7201,0 -0.861,-0.24748 -0.54529,-0.95776l0,0l0,0z" stroke-linecap="null" stroke-linejoin="null" stroke-dasharray="null" stroke-width="5" fill="none"/>
  <path id="svg_128" stroke="#57a64a" transform="rotate(56.23025131225586 459.63507080078136,566.7742309570311) " d="m448.42487,575.87719c0.95782,-2.1549 2.26881,-3.97988 3.51236,-4.88942c1.33228,-0.97442 0.74119,-1.3971 -0.63316,-0.45276c-0.5782,0.39729 -0.74341,0.10881 -0.74341,-1.29816c0,-3.35691 2.53256,-5.43407 8.62602,-7.07491c5.15597,-1.38839 8.95724,-2.94974 10.53333,-4.32649l1.28432,-1.12189l0,1.95198c0,2.41365 -1.08982,6.06009 -2.29616,7.68271c-1.2797,1.72133 -5.66604,4.89864 -7.81848,5.66345c-1.9284,0.68521 -6.04685,0.88693 -8.24797,0.40399c-1.0969,-0.24067 -1.44502,-0.05679 -2.01339,1.06348c-0.37794,0.74496 -0.68717,1.80476 -0.68717,2.35512c0,0.62482 -0.3647,1.00066 -0.971,1.00066c-0.7201,0 -0.861,-0.24748 -0.54529,-0.95776l0,0l0,0z" stroke-linecap="null" stroke-linejoin="null" stroke-dasharray="null" stroke-width="5" fill="none"/>
  <path id="svg_129" stroke="#57a64a" transform="rotate(56.23025131225586 488.19543457031244,566.0020751953125) " d="m476.98523,575.105c0.95782,-2.1549 2.26881,-3.97988 3.51236,-4.88942c1.33228,-0.97442 0.74119,-1.3971 -0.63316,-0.45276c-0.5782,0.39729 -0.74341,0.10881 -0.74341,-1.29816c0,-3.35691 2.53256,-5.43407 8.62602,-7.07491c5.15597,-1.38839 8.95724,-2.94974 10.53333,-4.32649l1.28432,-1.12189l0,1.95198c0,2.41365 -1.08982,6.06009 -2.29616,7.68271c-1.2797,1.72133 -5.66604,4.89864 -7.81848,5.66345c-1.9284,0.68521 -6.04685,0.88693 -8.24797,0.40399c-1.0969,-0.24067 -1.44502,-0.05679 -2.01339,1.06348c-0.37794,0.74496 -0.68717,1.80476 -0.68717,2.35512c0,0.62482 -0.3647,1.00066 -0.971,1.00066c-0.7201,0 -0.861,-0.24748 -0.54529,-0.95776l0,0l0,0z" stroke-linecap="null" stroke-linejoin="null" stroke-dasharray="null" stroke-width="5" fill="none"/>
  <path id="svg_130" stroke="#57a64a" transform="rotate(56.23025131225586 518.1954345703124,566.0020751953125) " d="m506.98523,575.105c0.95782,-2.1549 2.26881,-3.97988 3.51236,-4.88942c1.33228,-0.97442 0.74119,-1.3971 -0.63316,-0.45276c-0.5782,0.39729 -0.74341,0.10881 -0.74341,-1.29816c0,-3.35691 2.53256,-5.43407 8.62602,-7.07491c5.15597,-1.38839 8.95724,-2.94974 10.53333,-4.32649l1.28432,-1.12189l0,1.95198c0,2.41365 -1.08982,6.06009 -2.29616,7.68271c-1.2797,1.72133 -5.66604,4.89864 -7.81848,5.66345c-1.9284,0.68521 -6.04685,0.88693 -8.24797,0.40399c-1.0969,-0.24067 -1.44502,-0.05679 -2.01339,1.06348c-0.37794,0.74496 -0.68717,1.80476 -0.68717,2.35512c0,0.62482 -0.3647,1.00066 -0.971,1.00066c-0.7201,0 -0.861,-0.24748 -0.54529,-0.95776l0,0l0,0z" stroke-linecap="null" stroke-linejoin="null" stroke-dasharray="null" stroke-width="5" fill="none"/>
  <path id="svg_131" stroke="#57a64a" transform="rotate(56.23025131225586 548.1954345703126,566.0020751953124) " d="m536.98523,575.105c0.95782,-2.1549 2.26881,-3.97988 3.51236,-4.88942c1.33228,-0.97442 0.74119,-1.3971 -0.63316,-0.45276c-0.5782,0.39729 -0.74341,0.10881 -0.74341,-1.29816c0,-3.35691 2.53256,-5.43407 8.62602,-7.07491c5.15597,-1.38839 8.95724,-2.94974 10.53333,-4.32649l1.28432,-1.12189l0,1.95198c0,2.41365 -1.08982,6.06009 -2.29616,7.68271c-1.2797,1.72133 -5.66604,4.89864 -7.81848,5.66345c-1.9284,0.68521 -6.04685,0.88693 -8.24797,0.40399c-1.0969,-0.24067 -1.44502,-0.05679 -2.01339,1.06348c-0.37794,0.74496 -0.68717,1.80476 -0.68717,2.35512c0,0.62482 -0.3647,1.00066 -0.971,1.00066c-0.7201,0 -0.861,-0.24748 -0.54529,-0.95776l0,0l0,0z" stroke-linecap="null" stroke-linejoin="null" stroke-dasharray="null" stroke-width="5" fill="none"/>
  <line id="svg_132" y2="497" x2="235" y1="460" x1="285" stroke-linecap="null" stroke-linejoin="null" stroke-dasharray="null" stroke-width="5" stroke="#000000" fill="none"/>
  <line id="svg_133" y2="492" x2="344" y1="457" x1="313" stroke-linecap="null" stroke-linejoin="null" stroke-dasharray="null" stroke-width="5" stroke="#000000" fill="none"/>
  <line id="svg_134" y2="501" x2="116" y1="447" x1="281" stroke-linecap="null" stroke-linejoin="null" stroke-dasharray="null" stroke-width="5" stroke="#000000" fill="none"/>
  <line id="svg_135" y2="494" x2="476" y1="445" x1="318" stroke-linecap="null" stroke-linejoin="null" stroke-dasharray="null" stroke-width="5" stroke="#000000" fill="none"/>
  <line id="svg_136" y2="560" x2="38" y1="517" x1="78" stroke-linecap="null" stroke-linejoin="null" stroke-dasharray="null" stroke-width="5" stroke="#000000" fill="none"/>
  <line id="svg_137" y2="561" x2="122" y1="523" x1="107" stroke-linecap="null" stroke-linejoin="null" stroke-dasharray="null" stroke-width="5" stroke="#000000" fill="none"/>
  <line id="svg_138" y2="561" x2="68" y1="526" x1="85" stroke-linecap="null" stroke-linejoin="null" stroke-dasharray="null" stroke-width="5" stroke="#000000" fill="none"/>
  <line id="svg_139" y2="559" x2="178" y1="518" x1="204" stroke-linecap="null" stroke-linejoin="null" stroke-dasharray="null" stroke-width="5" stroke="#000000" fill="none"/>
  <line id="svg_140" y2="559" x2="260" y1="518" x1="236" stroke-linecap="null" stroke-linejoin="null" stroke-dasharray="null" stroke-width="5" stroke="#000000" fill="none"/>
  <line id="svg_141" y2="561" x2="97" y1="528" x1="97" stroke-linecap="null" stroke-linejoin="null" stroke-dasharray="null" stroke-width="5" stroke="#000000" fill="none"/>
  <line id="svg_142" y2="561" x2="209" y1="526" x1="212" stroke-linecap="null" stroke-linejoin="null" stroke-dasharray="null" stroke-width="5" stroke="#000000" fill="none"/>
  <line id="svg_143" y2="560" x2="234" y1="525" x1="224" stroke-linecap="null" stroke-linejoin="null" stroke-dasharray="null" stroke-width="5" stroke="#000000" fill="none"/>
  <line id="svg_144" y2="558" x2="319" y1="513" x1="339" stroke-linecap="null" stroke-linejoin="null" stroke-dasharray="null" stroke-width="5" stroke="#000000" fill="none"/>
  <line id="svg_145" y2="557" x2="398" y1="514" x1="370" stroke-linecap="null" stroke-linejoin="null" stroke-dasharray="null" stroke-width="5" stroke="#000000" fill="none"/>
  <line id="svg_146" y2="558" x2="345" y1="519" x1="350" stroke-linecap="null" stroke-linejoin="null" stroke-dasharray="null" stroke-width="5" stroke="#000000" fill="none"/>
  <line id="svg_147" y2="556" x2="372" y1="521" x1="360" stroke-linecap="null" stroke-linejoin="null" stroke-dasharray="null" stroke-width="5" stroke="#000000" fill="none"/>
  <line id="svg_148" y2="554" x2="461" y1="514" x1="476" stroke-linecap="null" stroke-linejoin="null" stroke-dasharray="null" stroke-width="5" stroke="#000000" fill="none"/>
  <line id="svg_149" y2="554" x2="541" y1="513" x1="509" stroke-linecap="null" stroke-linejoin="null" stroke-dasharray="null" stroke-width="5" stroke="#000000" fill="none"/>
  <line id="svg_150" y2="554" x2="485" y1="523" x1="487" stroke-linecap="null" stroke-linejoin="null" stroke-dasharray="null" stroke-width="5" stroke="#000000" fill="none"/>
  <line id="svg_151" y2="553" x2="511" y1="522" x1="498" stroke-linecap="null" stroke-linejoin="null" stroke-dasharray="null" stroke-width="5" stroke="#000000" fill="none"/>
 </g>
</svg>