<svg xmlns="http://www.w3.org/2000/svg" xmlns:xlink="http://www.w3.org/1999/xlink" width="103" height="20" role="img" aria-label="using: Towel;">
	<title>using: Towel;</title>
	<linearGradient id="s" x2="0" y2="100%">
		<stop offset="0" stop-color="#bbb" stop-opacity=".1"/>
		<stop offset="1" stop-opacity=".1"/>
	</linearGradient>
	<clipPath id="r">
		<rect width="103" height="20" rx="3" fill="#fff"/>
	</clipPath>
	<g clip-path="url(#r)">
		<rect width="56" height="20" fill="#555"/>
		<rect x="56" width="47" height="20" fill="#b9e0d3"/>
		<rect width="103" height="20" fill="url(#s)"/>
	</g>
	<g fill="#fff" text-anchor="middle" font-family="Verdana,Geneva,DejaVu Sans,sans-serif" text-rendering="geometricPrecision" font-size="110">
		<svg xmlns="http://www.w3.org/2000/svg" xmlns:svg="http://www.w3.org/2000/svg" x="2px" width="19px" height="19px" viewBox="0 0 640 480">
			<g>
				<g>
					<path d="m546,330.2373c0,0 14,-23 9,-74c-5,-51 -5,-31 -20,-89c-15,-58 -44,-87 -85,-88c-41,-1 -341,-2 -341,-2c0,0 -75,-2 -74,51c1,53 8,180 23,226c15,46 66,67 110,68c44,1 326,14 353,3c27,-11 45,-46 47,-59c2,-13 -22,-36 -22,-36z" stroke-linecap="null" stroke-linejoin="null" stroke-dasharray="null" stroke-width="0" stroke="#000000" fill="#d6eadf"/>
					<path d="m583,449.2373c0,0 -419,0 -419,0c0,0 -105,-4 -103,-104c2,-100 84,-121 98,-121c14,0 318,0 318,0c0,0 63,11 60,75c-3,64 -49,82 -69,87c-20,5 -268,3 -268,3c0,0 -49,1 -55,-45c-6,-46 41,-53 47,-53c6,0 235,0 235,0c0,0 22,-3 22,18c0,21 -11,18 -17,20c-6,2 -234,1 -234,1c0,0 -12,-3 -11,8c1,11 11,7 11,7c0,0 234,0 234,0c0,0 34,-1 34,-33c0,-32 -28,-37 -28,-37c0,0 -247,-1 -247,-1c0,0 -65,2 -62,67c3,65 64,63 73,64c9,1 262,-1 262,-1c0,0 47,-10 63,-31c16,-21 20,-40 20,-40c0,0 41,0 41,0c0,0 11,-5 13,4c2,9 9,2 5,17c-4,15 1,80 1,80c0,0 0,6 -5,10c-5,4 -19,5 -19,5z" stroke-linecap="null" stroke-linejoin="null" stroke-dasharray="null" stroke-width="0" stroke="#000000" fill="#b8e0d2"/>
				</g>
				<g stroke="null">
					<path stroke="#000000" d="m318.63396,106.58671c0,0 -11.54827,-10.34387 -11.53456,-10.42324c0.0137,-0.07938 -9.73857,19.64885 -9.72486,19.56948c0.0137,-0.07938 13.35797,11.26193 13.37167,11.18255c0.01372,-0.07937 7.88774,-20.32879 7.88774,-20.32879z" stroke-linecap="null" stroke-linejoin="null" stroke-dasharray="null" stroke-width="0" fill="#ef9b97"/>
					<path stroke="#000000" d="m269.42436,105.80851c0,0 10.62343,-10.34387 10.61082,-10.42325c-0.01261,-0.07938 8.95866,19.64886 8.94605,19.56948c-0.01261,-0.07938 -12.2882,11.26194 -12.30082,11.18256c-0.01261,-0.07938 -7.25605,-20.3288 -7.25605,-20.3288z" stroke-linecap="null" stroke-linejoin="null" stroke-dasharray="null" stroke-width="0" fill="#ef9b97"/>
					<path stroke="#000000" d="m358.33208,126.57577c0,0 -3.63833,-19.28991 -3.62572,-19.36929c0.01263,-0.07938 -19.32379,9.86412 -19.31116,9.78474c0.01263,-0.07938 2.78609,23.56275 2.79872,23.48339c0.01262,-0.07938 20.13815,-13.89883 20.13815,-13.89883z" stroke-linecap="null" stroke-linejoin="null" stroke-dasharray="null" stroke-width="0" fill="#ef9b97"/>
					<path stroke="#000000" d="m233.64017,128.45319c0,0 3.63433,-19.28992 3.62172,-19.3693c-0.01261,-0.07938 19.30253,9.86412 19.28992,9.78474c-0.01261,-0.07938 -2.78303,23.56276 -2.79564,23.48338c-0.01261,-0.07938 -20.116,-13.89882 -20.116,-13.89882z" stroke-linecap="null" stroke-linejoin="null" stroke-dasharray="null" stroke-width="0" fill="#ef9b97"/>
					<path stroke="#000000" d="m359.9531,171.22649c0,0 12.68319,-17.51934 12.68319,-17.51934c0,0 -19.98564,0.7455 -19.87652,0.38653c0.10913,-0.35897 -24.32247,11.91428 -24.21336,11.55531c0.10913,-0.35896 2.9656,13.77805 2.9656,13.77805c0,0 28.44109,-8.20055 28.44109,-8.20055z" stroke-linecap="null" stroke-linejoin="null" stroke-dasharray="null" stroke-width="0" fill="#ef9b97"/>
					<path stroke="#000000" d="m229.26036,171.69246c0,0 -12.30082,-17.51935 -12.30082,-17.51935c0,0 19.38311,0.7455 19.27728,0.38653c-0.10583,-0.35897 23.58921,11.91428 23.48338,11.55531c-0.10583,-0.35897 -2.87618,13.77805 -2.87618,13.77805c0,0 -27.58365,-8.20055 -27.58365,-8.20055z" stroke-linecap="null" stroke-linejoin="null" stroke-dasharray="null" stroke-width="0" fill="#ef9b97"/>
					<path stroke="#000000" d="m262.55959,203.65588c0,0 17.8921,4.97003 31.31117,5.46703c13.41907,0.497 35.2872,-5.96403 34.80856,-6.07444c-0.47863,-0.1104 23.34076,0.60741 22.86213,0.497c-0.47863,-0.1104 14.39471,-1.38061 19.36474,-8.33864c4.97003,-6.95804 16.40109,-30.81417 15.92246,-30.92457c-0.47863,-0.1104 -49.71864,13.52948 -49.71864,13.52948c0,0 -6.46104,-4.47302 -6.93967,-4.58343c-0.47863,-0.1104 10.41869,-9.33265 9.94005,-9.44305c-0.47863,-0.1104 15.38872,-8.33865 17.87373,-10.82366c2.48501,-2.48501 10.43706,-14.91008 9.95842,-15.02048c-0.47863,-0.1104 5.94566,-21.26072 5.44866,-21.26072c-0.497,0 -15.40709,4.47302 -15.40709,4.97003c0,0.497 -16.40109,11.43106 -16.40109,11.43106c0,0 -4.47302,-20.37711 -4.47302,-20.37711c0,0 -12.92207,-14.91008 -13.4007,-15.02048c-0.47863,-0.1104 -16.41946,21.48152 -16.41946,21.48152c0,0 -12.42507,-11.43106 -12.9037,-11.54146c-0.47863,-0.1104 -11.94644,10.05045 -11.94644,10.05045c0,0 -20.37711,-18.3891 -20.85574,-18.4995c-0.47863,-0.1104 -14.43145,33.90659 -14.43145,33.90659c0,0 -20.37711,-12.42507 -20.37711,-12.42507c0,0 -10.43706,-1.98801 -10.43706,-1.98801c0,0 3.47902,21.86812 3.47902,21.86812c0,0 22.36512,22.36512 22.36512,22.36512c0,0 5.96403,1.98801 5.96403,1.98801c0,0 2.98202,0.99401 2.98202,0.99401c0,0 3.47902,7.45504 3.47902,7.45504c0,0 -50.19728,-6.46104 -50.67591,-6.57144c-0.47863,-0.1104 8.92768,21.48152 8.92768,21.48152c0,0 14.91008,12.92207 14.91008,12.92207c0,0 15.40709,3.47902 15.40709,3.47902c0,0 19.38311,-0.99401 19.38311,-0.99401z" stroke-linecap="null" stroke-linejoin="null" stroke-dasharray="null" stroke-width="0" fill="#ef9b97"/>
					<g stroke="null">
						<path stroke="#000000" d="m326.35997,202.86443c0,0 29.07466,14.16458 51.06703,-10.80981c21.99237,-24.97439 16.02834,-41.00273 15.9225,-41.3617c-0.10584,-0.35897 -3.99444,7.44126 -11.07673,11.54153c-7.08229,4.10027 -37.64796,5.59128 -37.75379,5.23231c-0.10583,-0.35897 -19.65002,4.08649 -25.24131,9.30502c-5.59128,5.21853 -16.77384,15.65559 -17.14659,18.6376c-0.37275,2.98202 4.84578,-9.3188 31.31117,-13.79183c26.4654,-4.47302 46.96676,-10.06431 46.86092,-10.42328c-0.10584,-0.35897 -3.99444,18.62382 -18.15902,25.33336c-14.16458,6.70954 -35.7842,6.33679 -35.7842,6.33679z" stroke-linecap="null" stroke-linejoin="null" stroke-dasharray="null" stroke-width="0" fill="#fe5f55"/>
						<path stroke="#000000" d="m263.53265,202.91318c0,0 -29.08636,14.16458 -51.08757,-10.80981c-22.00122,-24.97439 -16.03479,-41.00273 -15.92892,-41.3617c0.10588,-0.35897 3.99604,7.44126 11.08118,11.54153c7.08514,4.10027 37.66311,5.59129 37.76898,5.23232c0.10588,-0.35897 19.65793,4.08649 25.25146,9.30502c5.59354,5.21853 16.78059,15.65558 17.15349,18.6376c0.37291,2.98202 -4.84772,-9.31879 -31.32377,-13.79182c-26.47604,-4.47302 -46.98564,-10.06431 -46.87977,-10.42328c0.10588,-0.35897 3.99604,18.62383 18.16632,25.33336c14.17028,6.70953 35.79859,6.33679 35.79859,6.33679z" stroke-linecap="null" stroke-linejoin="null" stroke-dasharray="null" stroke-width="0" fill="#fe5f55"/>
						<path stroke="#000000" d="m305.85861,187.64142c0,0 21.99237,-21.61962 19.75586,-41.00273c-2.23651,-19.38311 -8.5733,-25.71989 -16.02834,-32.42943c-7.45504,-6.70954 -12.30082,-10.43706 -12.67357,-12.30082c-0.37275,-1.86376 -2.60926,-4.10027 -2.7151,-4.45924c-0.10583,-0.35897 0.85134,2.22273 -2.50343,5.5775c-3.35477,3.35477 -29.07466,21.99237 -27.58365,44.3575c1.49101,22.36512 18.6376,39.51172 18.53177,39.15275c-0.10583,-0.35897 -9.21297,-16.78762 -9.58572,-36.91623c-0.37275,-20.12861 21.61962,-34.29319 21.51379,-34.65216c-0.10583,-0.35897 19.48894,11.91428 21.72545,35.02491c2.23651,23.11063 -10.43706,37.64796 -10.43706,37.64796z" stroke-linecap="null" stroke-linejoin="null" stroke-dasharray="null" stroke-width="0" fill="#fe5f55"/>
						<path stroke="#000000" d="m319.27768,173.78977c0,0 21.99237,-16.40109 25.34714,-37.27521c3.35477,-20.87412 -8.5733,-35.7842 -8.67913,-36.14317c-0.10583,-0.35897 -3.99444,-5.60506 -4.36719,-7.09607c-0.37275,-1.49101 -3.72752,-5.96403 -3.83335,-6.323c-0.10583,-0.35897 -1.01242,4.08649 -3.62169,5.95025c-2.60926,1.86376 -4.84578,5.21853 -6.70954,8.20055c-1.86376,2.98202 -4.10027,10.06431 -4.20611,9.70534c-0.10583,-0.35897 12.0339,-7.46882 11.92807,-7.82779c-0.10583,-0.35897 16.50692,17.13281 12.7794,35.02491c-3.72752,17.8921 -18.6376,35.7842 -18.6376,35.7842z" stroke-linecap="null" stroke-linejoin="null" stroke-dasharray="null" stroke-width="0" fill="#fe5f55"/>
						<path stroke="#000000" d="m270.04389,175.34395c0,0 -21.7971,-16.4011 -25.12208,-37.27521c-3.32499,-20.87411 8.49717,-35.7842 8.60207,-36.14316c0.10489,-0.35897 3.95897,-5.60507 4.32842,-7.09607c0.36944,-1.49101 3.69442,-5.96403 3.79931,-6.32301c0.1049,-0.35897 1.00344,4.08649 3.58953,5.95025c2.58609,1.86376 4.80275,5.21853 6.64996,8.20055c1.84721,2.98202 4.06387,10.06431 4.16877,9.70533c0.10489,-0.35897 -11.92706,-7.46882 -11.82216,-7.82779c0.10489,-0.35897 -16.36036,17.13281 -12.66594,35.02491c3.69442,17.8921 18.47212,35.7842 18.47212,35.7842z" stroke-linecap="null" stroke-linejoin="null" stroke-dasharray="null" stroke-width="0" fill="#fe5f55"/>
						<path stroke="#000000" d="m336.465,165.67073c0,0 14.46744,-2.20157 22.17292,-9.27803c7.70548,-7.07646 11.16509,-10.53607 14.9392,-19.8141c3.77411,-9.27803 3.4596,-18.0843 3.4596,-18.24155c0,-0.15725 0.47176,-3.77411 0.31451,-4.08862c-0.15725,-0.31451 1.25804,-4.71764 1.19302,-4.72712c-0.06502,-0.00948 -3.7091,2.3683 -4.49537,2.84007c-0.78627,0.47176 -14.62469,6.29019 -16.3545,7.70548c-1.7298,1.41529 -8.17725,7.39097 -8.24227,7.38149c-0.06502,-0.00948 8.39952,-4.2364 10.9156,-4.86542c2.51608,-0.62902 10.06431,-2.35882 10.06431,-2.35882c0,0 -4.8749,19.02783 -10.06431,25.63253c-5.18941,6.6047 -23.90272,19.8141 -23.90272,19.8141z" stroke-linecap="null" stroke-linejoin="null" stroke-dasharray="null" stroke-width="0" fill="#fe5f55"/>
						<path stroke="#000000" d="m253.13397,166.9322c0,0 -14.4626,-2.20156 -22.1655,-9.27803c-7.7029,-7.07646 -11.16135,-10.53607 -14.9342,-19.81409c-3.77285,-9.27803 -3.45845,-18.0843 -3.45845,-18.24156c0,-0.15725 -0.4716,-3.77411 -0.3144,-4.08862c0.1572,-0.3145 -1.25762,-4.71764 -1.19263,-4.72712c0.065,-0.00948 3.70786,2.36831 4.49387,2.84007c0.78601,0.47176 14.61979,6.29018 16.34901,7.70548c1.72922,1.41529 8.17451,7.39097 8.2395,7.38149c0.065,-0.00947 -8.3967,-4.23639 -10.91193,-4.86541c-2.51524,-0.62902 -10.06094,-2.35882 -10.06094,-2.35882c0,0 4.87326,19.02783 10.06094,25.63252c5.18766,6.60471 23.89472,19.8141 23.89472,19.8141z" stroke-linecap="null" stroke-linejoin="null" stroke-dasharray="null" stroke-width="0" fill="#fe5f55"/>
					</g>
				</g>
			</g>
		</svg>
		<text aria-hidden="true" x="375" y="150" fill="#010101" fill-opacity=".3" transform="scale(.1)" textLength="290">using</text>
		<text x="375" y="140" transform="scale(.1)" fill="#fff" textLength="290">using</text>
		<text aria-hidden="true" x="785" y="150" fill="#ccc" fill-opacity=".3" transform="scale(.1)" textLength="370">Towel;</text>
		<text x="785" y="140" transform="scale(.1)" fill="#333" textLength="370">Towel;</text>
	</g>
</svg>